<svg width="153" height="38" viewBox="0 0 153 38" fill="none" xmlns="http://www.w3.org/2000/svg">
<path d="M18.8495 2.50652L25.4053 4.50769C31.4264 6.34018 34.7915 12.6067 32.9217 18.5159L28.0871 36.4978L10.0351 30.2856C4.00253 28.4531 0.646022 22.1866 2.51869 16.2946L4.55719 9.86795C6.427 3.97023 12.8255 0.674024 18.8495 2.50652Z" fill="url(#paint0_linear_6682_1746)"/>
<path fill-rule="evenodd" clip-rule="evenodd" d="M14.7838 14.013C14.7149 14.0513 14.6542 14.1031 14.6055 14.1651C14.5568 14.2272 14.521 14.2983 14.5001 14.3744C14.4792 14.4505 14.4738 14.53 14.484 14.6082C14.4943 14.6864 14.52 14.7618 14.5598 14.83L16.9319 18.8755C16.9434 18.8947 16.9619 18.9086 16.9835 18.9145C17.0051 18.9204 17.0282 18.9178 17.0479 18.9071C17.0608 18.8999 17.0752 18.8961 17.09 18.8961C17.1047 18.8961 17.1192 18.8998 17.1322 18.9069C17.1451 18.914 17.156 18.9243 17.1638 18.9368C17.1717 18.9493 17.1762 18.9635 17.177 18.9783C17.177 18.9896 17.1793 19.0007 17.1837 19.0111C17.1881 19.0216 17.1945 19.031 17.2027 19.0388C17.2108 19.0467 17.2204 19.0529 17.2309 19.0569C17.2415 19.061 17.2527 19.0629 17.264 19.0626L20.2687 19.0257C20.3504 19.0309 20.4324 19.0194 20.5095 18.9916C20.5866 18.9639 20.6571 18.9207 20.7168 18.8646C20.7765 18.8085 20.824 18.7407 20.8565 18.6655C20.8889 18.5903 20.9055 18.5092 20.9054 18.4273C20.9052 18.3454 20.8882 18.2644 20.8554 18.1894C20.8226 18.1143 20.7748 18.0468 20.7149 17.9909C20.655 17.9351 20.5842 17.8922 20.507 17.8648C20.4298 17.8374 20.3478 17.8262 20.2661 17.8318H19.1775C18.7484 17.8421 18.3243 17.7388 17.948 17.5323C17.5717 17.3259 17.2566 17.0237 17.0347 16.6564L15.6061 14.2317C15.523 14.0971 15.3914 13.9995 15.2385 13.9588C15.0856 13.9181 14.9229 13.9375 14.7838 14.013V14.013Z" fill="white"/>
<path fill-rule="evenodd" clip-rule="evenodd" d="M20.4244 10.0205C20.4452 9.90769 20.4914 9.80107 20.5593 9.70865C20.6273 9.61623 20.7153 9.54041 20.8167 9.48689C20.9182 9.43337 21.0305 9.40354 21.1451 9.39965C21.2598 9.39575 21.3738 9.4179 21.4787 9.46441C23.1002 10.2119 24.4547 11.4367 25.3611 12.9749C25.9432 13.9655 26.3211 15.0626 26.4725 16.2015C26.6239 17.3404 26.5458 18.4981 26.2426 19.6064C25.9395 20.7146 25.4176 21.7509 24.7076 22.6543C23.9976 23.5577 23.1139 24.3097 22.1086 24.8662C20.0683 26.0232 17.6568 26.3376 15.388 25.7424C13.1193 25.1472 11.1727 23.6895 9.96332 21.6799C9.3816 20.6889 9.0041 19.5915 8.85305 18.4523C8.702 17.3131 8.78045 16.1553 9.08378 15.0469C9.38712 13.9385 9.9092 12.9021 10.6193 11.9985C11.3294 11.095 12.2131 10.3427 13.2184 9.78594C14.4048 9.11331 15.729 8.7203 17.0903 8.63687C17.205 8.63056 17.3197 8.65086 17.4253 8.69617C17.5309 8.74149 17.6246 8.8106 17.6991 8.89811C17.7736 8.98562 17.8269 9.08916 17.8548 9.20065C17.8827 9.31214 17.8844 9.42857 17.8599 9.54084C17.8167 9.7269 17.7141 9.89386 17.5677 10.0165C17.4212 10.1392 17.2389 10.2109 17.0481 10.2208C15.9839 10.3092 14.9515 10.6275 14.0223 11.1538C13.1975 11.6097 12.4725 12.2263 11.8901 12.9672C11.3077 13.708 10.8798 14.5581 10.6316 15.4672C10.3834 16.3763 10.3201 17.3259 10.4452 18.2599C10.5704 19.1939 10.8815 20.0934 11.3602 20.9051C12.3502 22.5501 13.9435 23.7435 15.8006 24.2309C17.6578 24.7182 19.6318 24.4611 21.3021 23.5142C22.1271 23.0585 22.8524 22.4421 23.435 21.7013C24.0177 20.9605 24.4459 20.1105 24.6943 19.2013C24.9427 18.2922 25.0063 17.3426 24.8814 16.4084C24.7564 15.4743 24.4454 14.5748 23.9668 13.7629C23.2495 12.5466 22.1898 11.5685 20.9199 10.9508C20.7469 10.8714 20.6047 10.7373 20.5152 10.5693C20.4257 10.4012 20.3938 10.2084 20.4244 10.0205V10.0205Z" fill="white"/>
<path d="M14.9727 14.6667C14.9527 14.6324 14.9397 14.5944 14.9345 14.555C14.9294 14.5156 14.9322 14.4756 14.9427 14.4372C14.9533 14.3989 14.9714 14.3631 14.996 14.3319C15.0206 14.3007 15.0513 14.2747 15.0861 14.2556L14.7803 13.7416C14.677 13.7989 14.5887 13.863 14.5157 13.9559C14.4427 14.0488 14.389 14.1554 14.3578 14.2694C14.3266 14.3833 14.3186 14.5024 14.3341 14.6195C14.3496 14.7366 14.3805 14.8652 14.4403 14.9671L14.9727 14.6667ZM17.358 18.7122L14.9675 14.6693L14.4403 14.9671L16.8309 19.01L17.358 18.7122ZM20.4286 18.7122L17.4239 18.7517V19.3447L20.4286 19.3078V18.7122ZM20.7238 18.4091C20.7238 18.4895 20.6919 18.5666 20.6351 18.6234C20.5782 18.6802 20.5011 18.7122 20.4207 18.7122V19.3078C20.6603 19.3064 20.8896 19.2103 21.0584 19.0404C21.2273 18.8705 21.3221 18.6407 21.3221 18.4012L20.7238 18.4091ZM20.4128 18.1113C20.4529 18.1102 20.4927 18.1171 20.53 18.1316C20.5674 18.146 20.6015 18.1677 20.6304 18.1954C20.6593 18.2231 20.6825 18.2562 20.6985 18.2929C20.7145 18.3296 20.7232 18.3691 20.7238 18.4091H21.3221C21.3194 18.2904 21.3012 18.1734 21.2532 18.0647C21.2052 17.9561 21.1363 17.858 21.0504 17.776C20.9645 17.694 20.8633 17.6297 20.7525 17.5869C20.6418 17.544 20.5236 17.5234 20.4049 17.5262L20.4128 18.1113ZM19.3243 18.1113H20.4128L20.4049 17.5262L19.3216 17.5315L19.3243 18.1113ZM15.4999 14.3663L16.9284 16.7909L17.4556 16.4931L16.027 14.0684L15.4999 14.3663ZM15.0808 14.2556C15.1512 14.2152 15.2346 14.2041 15.3131 14.2249C15.3915 14.2456 15.4586 14.2964 15.4999 14.3663L16.027 14.0684C15.903 13.862 15.7032 13.7123 15.4702 13.6512C15.2373 13.5902 14.9897 13.6226 14.7803 13.7416L15.0808 14.2556ZM17.0339 18.9678C17.0349 19.0186 17.0459 19.0686 17.0664 19.1151C17.0869 19.1616 17.1163 19.2035 17.1531 19.2386C17.1898 19.2736 17.2331 19.301 17.2805 19.3192C17.3279 19.3374 17.3785 19.3461 17.4292 19.3447V18.7517C17.4572 18.751 17.4852 18.7558 17.5113 18.7659C17.5375 18.776 17.5614 18.7911 17.5817 18.8105C17.6021 18.8298 17.6184 18.853 17.6297 18.8786C17.6411 18.9042 17.6473 18.9319 17.648 18.9599L17.0339 18.9678ZM19.3216 17.5315C18.9468 17.5377 18.5769 17.445 18.2492 17.2627C17.9216 17.0804 17.6479 16.8149 17.4556 16.4931L16.9284 16.7909C17.1755 17.2045 17.5274 17.5456 17.9486 17.7798C18.3697 18.0139 18.8451 18.1328 19.3269 18.1245L19.3216 17.5315ZM17.358 19.1497C17.3255 19.1676 17.2888 19.177 17.2516 19.1769C17.2144 19.1767 17.1778 19.1671 17.1454 19.1489C17.1129 19.1307 17.0856 19.1045 17.0661 19.0728C17.0466 19.0411 17.0355 19.005 17.0339 18.9678H17.6401C17.6382 18.9006 17.6189 18.835 17.5841 18.7775C17.5492 18.72 17.5 18.6725 17.4412 18.6398C17.3824 18.6071 17.3161 18.5902 17.2489 18.5909C17.1816 18.5916 17.1157 18.6098 17.0576 18.6437L17.358 19.1497ZM16.8309 19.01C16.8836 19.097 16.968 19.1602 17.0663 19.1862C17.1646 19.2123 17.2692 19.1992 17.358 19.1497L17.0549 18.6226C17.1048 18.5943 17.1637 18.5864 17.2193 18.6006C17.2748 18.6149 17.3227 18.6502 17.3528 18.699L16.8309 19.01Z" fill="white"/>
<path d="M25.7079 13.1722C24.7598 11.5652 23.345 10.2847 21.6516 9.50097L21.3037 10.2178C22.8454 10.9337 24.1325 12.1021 24.9937 13.5675L25.7079 13.1722ZM22.3053 25.6038C23.356 25.0218 24.2796 24.2355 25.0218 23.2912C25.764 22.3468 26.3097 21.2635 26.6267 20.1051C26.9438 18.9466 27.0259 17.7364 26.8681 16.5458C26.7103 15.3551 26.3158 14.2081 25.7079 13.1722L25.0068 13.5675C25.5624 14.5131 25.923 15.5604 26.0674 16.6475C26.2119 17.7347 26.1372 18.8398 25.8478 19.8976C25.5585 20.9555 25.0603 21.9447 24.3826 22.807C23.7049 23.6693 22.8615 24.3873 21.902 24.9186L22.3053 25.6038ZM9.60908 22.2725C12.1763 26.6264 17.8615 28.1102 22.3053 25.6038L21.902 24.9186C19.9542 26.0248 17.6512 26.3259 15.4845 25.7577C13.3178 25.1894 11.459 23.7969 10.3049 21.8772L9.60908 22.2725ZM13.0118 9.84094C11.9605 10.4224 11.0364 11.2084 10.2938 12.1527C9.55119 13.097 9.00523 14.1804 8.68809 15.3391C8.37095 16.4977 8.28906 17.7082 8.44724 18.899C8.60541 20.0898 9.00046 21.2368 9.60908 22.2725L10.3102 21.8772C9.75429 20.9317 9.39338 19.8844 9.24875 18.7972C9.10412 17.71 9.1787 16.6048 9.46808 15.5468C9.75746 14.4889 10.2558 13.4996 10.9337 12.6373C11.6116 11.775 12.4553 11.0572 13.415 10.5262L13.0118 9.84094ZM17.0602 8.63652C15.6368 8.72576 14.2524 9.13763 13.0118 9.84094L13.415 10.5262C14.5461 9.88545 15.8077 9.50969 17.105 9.42717L17.0602 8.63652ZM14.2216 11.8914C15.0983 11.3952 16.0721 11.0948 17.076 11.0111L17.0101 10.2205C15.8871 10.3129 14.7979 10.6493 13.8183 11.2061L14.2216 11.8914ZM11.7045 21.0892C11.2545 20.3229 10.9625 19.4742 10.8457 18.5933C10.7288 17.7123 10.7894 16.8169 11.024 15.9597C11.2586 15.1026 11.6623 14.301 12.2115 13.6023C12.7606 12.9036 13.4441 12.3219 14.2216 11.8914L13.8183 11.2061C12.949 11.6868 12.1848 12.3366 11.5708 13.1174C10.9568 13.8982 10.5055 14.794 10.2433 15.752C9.98121 16.71 9.91364 17.7109 10.0446 18.6954C10.1756 19.68 10.5025 20.6284 11.006 21.4845L11.7045 21.0892ZM21.0955 23.5534C19.5178 24.448 17.6531 24.691 15.8989 24.2307C14.1446 23.7704 12.6395 22.6431 11.7045 21.0892L11.006 21.4845C12.0504 23.2212 13.7319 24.4811 15.6921 24.9956C17.6523 25.5101 19.736 25.2385 21.4987 24.2386L21.0955 23.5534ZM23.6231 14.3555C24.073 15.1219 24.365 15.9705 24.4819 16.8515C24.5988 17.7324 24.5381 18.6279 24.3036 19.485C24.069 20.3422 23.6652 21.1437 23.1161 21.8424C22.5669 22.5411 21.8835 23.1229 21.106 23.5534L21.5093 24.2386C22.3783 23.7577 23.1422 23.1077 23.756 22.3269C24.3698 21.5461 24.821 20.6504 25.0831 19.6924C25.3452 18.7345 25.4129 17.7338 25.2821 16.7493C25.1513 15.7648 24.8247 14.8165 24.3216 13.9602L23.6231 14.3555ZM20.737 11.7016C21.9386 12.284 22.9423 13.2069 23.6231 14.3555L24.3216 13.9602C23.562 12.6758 22.4409 11.6436 21.0981 10.9927L20.737 11.7016ZM17.1129 9.42717C17.1667 9.42587 17.2201 9.43706 17.2688 9.45987C17.3176 9.48268 17.3604 9.51649 17.3938 9.55864C17.4273 9.60079 17.4505 9.65012 17.4617 9.70277C17.4729 9.75541 17.4717 9.80993 17.4582 9.86203L18.2489 10.0123C18.285 9.83985 18.2807 9.66145 18.2365 9.49096C18.1923 9.32047 18.1093 9.1625 17.994 9.02935C17.8787 8.8962 17.7342 8.79147 17.5718 8.72334C17.4093 8.6552 17.2334 8.62549 17.0576 8.63652L17.1129 9.42717ZM21.0981 10.9927C21.0027 10.9518 20.9235 10.8805 20.873 10.7899C20.8224 10.6993 20.8034 10.5945 20.8187 10.4919L20.028 10.3417C19.9793 10.6152 20.0228 10.897 20.1516 11.1432C20.2804 11.3893 20.4872 11.5857 20.7396 11.7016L21.0981 10.9927ZM17.4582 9.86203C17.4322 9.96236 17.3746 10.0517 17.2939 10.1167C17.2132 10.1817 17.1137 10.219 17.0101 10.2231L17.076 11.0137C17.3538 10.9971 17.6186 10.8907 17.8306 10.7106C18.0426 10.5304 18.1903 10.2863 18.2515 10.0149L17.4582 9.86203ZM21.6516 9.50097C21.4912 9.42803 21.3162 9.39244 21.1401 9.39688C20.9639 9.40133 20.791 9.44569 20.6344 9.52663C20.4778 9.60757 20.3417 9.72298 20.2362 9.86416C20.1307 10.0053 20.0586 10.1686 20.0254 10.3417L20.8161 10.4919C20.8249 10.4395 20.8455 10.3897 20.8764 10.3464C20.9073 10.3031 20.9477 10.2674 20.9944 10.2421C21.0411 10.2167 21.093 10.2022 21.1461 10.1999C21.1993 10.1975 21.2522 10.2072 21.3011 10.2284L21.6516 9.50097Z" fill="white"/>
<path d="M45.0868 28.6572C44.6573 28.6809 44.235 28.5393 43.9077 28.2618C43.5798 27.8927 43.3744 27.4321 43.3196 26.9427L40.1289 10.2075H42.0865L45.0073 26.1264H45.0328L49.7521 11.182H50.5817C50.724 11.1743 50.8663 11.1954 51.0001 11.244C51.1339 11.2925 51.2564 11.3675 51.3602 11.4644C51.5925 11.7004 51.759 11.9924 51.8432 12.3118L56.0227 26.1208H56.0511L58.9719 10.2075H60.9295L57.7445 26.9427C57.6876 27.4321 57.4813 27.8924 57.1535 28.2618C56.8265 28.5398 56.404 28.6815 55.9744 28.6572H55.1703L50.6244 13.7918H50.5988L45.8909 28.6572H45.0868ZM67.3506 28.869C65.8504 28.869 64.6439 28.4378 63.7309 27.5754C62.8179 26.713 62.3624 25.554 62.3643 24.0984V20.3277C62.3643 18.8213 62.8198 17.6087 63.7309 16.6898C64.642 15.7709 65.8485 15.3048 67.3506 15.2916H69.5469C70.9788 15.2916 72.1314 15.7398 73.0046 16.6361C73.8778 17.5324 74.3163 18.7187 74.3201 20.195V22.5139H64.2935V24.0956C64.2627 24.9241 64.5642 25.7307 65.1316 26.3383C65.4255 26.6218 65.7741 26.8431 66.1565 26.9888C66.5389 27.1344 66.9471 27.2014 67.3563 27.1856H69.3934C70.1803 27.2211 70.9529 26.9678 71.5641 26.4738C71.8382 26.2297 72.0546 25.9284 72.198 25.5915C72.3414 25.2547 72.4083 24.8905 72.3938 24.5249H74.2718C74.293 25.1174 74.184 25.7074 73.9524 26.2537C73.7208 26.8001 73.3721 27.2897 72.9308 27.6884C72.0386 28.4792 70.8595 28.8747 69.3934 28.8747L67.3506 28.869ZM72.3881 20.8813V20.1978C72.431 19.3546 72.1542 18.5262 71.6124 17.876C71.3572 17.5833 71.0391 17.3514 70.6815 17.1974C70.324 17.0434 69.9362 16.9713 69.5469 16.9863H67.3506C66.9361 16.9719 66.5234 17.0464 66.1404 17.2048C65.7575 17.3632 65.4134 17.6018 65.1316 17.9043C64.5556 18.5783 64.2581 19.4443 64.2991 20.3277V20.8926L72.3881 20.8813ZM82.9716 28.869C82.3114 28.8491 81.6664 28.6677 81.0936 28.3408C80.4795 28.0146 79.9548 27.5444 79.565 26.971V28.6657H77.6898V10.2075H79.6218V17.0598C80.0128 16.5182 80.5267 16.0759 81.122 15.769C81.7186 15.4597 82.3811 15.297 83.054 15.2945H84.9576C85.8043 15.2781 86.6388 15.4973 87.367 15.9271C88.0826 16.3301 88.6612 16.9358 89.0291 17.667C89.4524 18.4522 89.6647 19.3326 89.6456 20.2232V23.6126C89.666 24.562 89.4544 25.5021 89.0291 26.3524C88.6603 27.1182 88.0735 27.7595 87.3414 28.1968C86.5906 28.6473 85.7265 28.8765 84.8497 28.8577L82.9716 28.869ZM84.7928 27.1743C85.1936 27.1846 85.5912 27.1019 85.9542 26.9327C86.3172 26.7636 86.6355 26.5126 86.884 26.1999C87.4604 25.4647 87.7546 24.5495 87.7136 23.6183V20.2289C87.7534 19.3736 87.4661 18.535 86.9095 17.8817C86.6641 17.5917 86.356 17.3606 86.0082 17.2056C85.6604 17.0506 85.2818 16.9756 84.9008 16.9863H83.1052C82.6592 16.9803 82.2169 17.0663 81.8061 17.2389C81.3953 17.4115 81.025 17.6669 80.7185 17.989C80.0389 18.7009 79.6482 19.6376 79.6218 20.6186V23.8329C79.6518 24.4342 79.8367 25.0178 80.1588 25.5276C80.4664 26.0246 80.8892 26.4411 81.3919 26.7422C81.8681 27.0328 82.4157 27.1872 82.9745 27.1884L84.7928 27.1743Z" fill="white"/>
<path d="M98.1179 28.6201C97.4275 28.6427 97.2031 28.4873 96.9133 28.2246C96.58 27.8583 96.3687 27.3986 96.3081 26.9084L92.9753 10.1704H94.9642L98.0242 26.0921H98.0498L102.269 11.1759H103.731C103.879 11.1759 104.049 11.1759 104.152 11.215C104.289 11.2638 104.413 11.3421 104.516 11.4443C104.754 11.678 104.925 11.9705 105.011 12.2916L109.273 26.0893H109.301L112.296 10.1704H114.284L111.051 26.9084C110.991 27.3986 110.779 27.8583 110.446 28.2246C110.11 28.5038 109.637 28.6201 109.241 28.6201H108.25L103.772 13.7688H103.746L98.9419 28.6201H98.1179ZM120.882 28.846C119.348 28.846 118.116 28.3894 117.188 27.4761C116.26 26.5629 115.794 25.3606 115.79 23.8693V20.2624C115.79 18.7691 116.256 17.5668 117.188 16.6555C118.14 15.7403 118.916 15.2856 120.941 15.2856H123.189C124.74 15.2856 125.983 15.7422 126.917 16.6555C127.85 17.5687 128.324 18.771 128.337 20.2624V23.8693C128.337 25.3606 127.864 26.5629 126.917 27.4761C125.969 28.3894 124.707 28.847 123.129 28.8489L120.882 28.846ZM122.319 26.7277C123.74 26.7277 124.308 26.5864 124.877 25.7391C125.462 25.1233 126.013 25.0273 126.013 24.0444L125.871 19.9488C125.303 19.1015 125.121 18.7823 124.695 18.2174C124.112 17.4859 123.189 17.4068 122.319 17.4068H120.615C119.666 17.4068 118.785 17.4972 118.2 18.1129C117.614 18.7287 117.489 19.2794 117.489 20.2624V23.8693C117.489 24.8691 117.634 25.4933 118.2 26.0921C118.765 26.6909 119.666 26.7277 120.615 26.7277H122.319ZM131.96 15.4633H133.116V17.5508C133.483 16.9351 134.792 16.421 135.523 16.0256C136.037 15.5567 135.15 15.3986 137.884 15.4155L138.941 15.4325V17.2684H137.804C136.383 17.2684 135.113 17.2684 134.253 18.1157C133.871 18.5077 133.573 18.9727 133.378 19.4825C133.182 19.9924 133.093 20.5364 133.116 21.0815V28.6172H132.533H131.96V15.4633ZM150.936 28.6201L145.055 21.926L142.782 23.8693V28.6257H141.671V10.1707L142.782 10.1761V21.926L150.453 15.4692H151.664L145.902 21.3611L152.127 28.6201H150.936Z" fill="white"/>
<path d="M97.1318 28.6201C96.689 28.6201 96.2799 28.5022 95.9527 28.2246C95.6241 27.856 95.4186 27.3952 95.3645 26.9056L92.1738 10.1704H94.1286L97.0522 26.0893H97.0778L101.8 11.1759H102.652C103.82 11.1759 103.22 11.2437 103.414 11.4358C103.647 11.671 103.814 11.9633 103.897 12.2831L107.624 26.2503L108.477 26.0921L111.443 10.1704H112.966L109.784 26.9056C109.727 27.3951 109.521 27.8556 109.193 28.2246C108.918 28.533 108.997 28.6201 108.014 28.6201H107.21L102.664 13.7547H102.635L97.9358 28.6201H97.1318ZM119.396 28.8319C117.892 28.8319 116.685 28.3743 115.776 27.4592C114.867 26.5441 114.411 25.3408 114.409 23.8495V20.2398C114.409 18.7447 114.865 17.5405 115.776 16.6272C116.705 15.7149 117.824 15.2856 119.404 15.2715H121.646C123.836 15.2715 124.379 15.7149 125.291 16.6272C126.203 17.5395 126.686 18.7456 126.686 20.2398V23.8495C126.686 25.3446 126.221 26.5478 125.291 27.4592C124.362 28.3743 123.129 28.8715 121.597 28.8715L119.396 28.8319ZM121.592 27.1372C122.558 27.1372 123.865 26.8548 124.433 26.256C125.001 25.6572 125.081 24.8324 125.081 23.8495V20.2398C125.015 19.2681 124.998 18.6383 124.461 17.9802C124.237 17.7796 123.97 17.2514 121.745 17.2825L119.495 17.2684C118.566 17.2684 117.768 17.2684 117.196 17.8813C116.608 18.5289 116.301 19.3821 116.344 20.2539V23.8495C116.299 24.7258 116.597 25.5854 117.177 26.2475C117.459 26.5489 117.804 26.786 118.188 26.9425C118.571 27.099 118.984 27.1712 119.398 27.1542L121.592 27.1372ZM130.232 15.4635H132.107V17.4915C132.493 16.8521 133.049 16.3318 133.715 15.9889C134.417 15.6213 135.195 15.423 135.988 15.4099H137.167V17.1243H135.988C135.474 17.104 134.961 17.1893 134.481 17.3749C134.002 17.5606 133.566 17.8426 133.201 18.2033C132.504 18.9057 132.155 19.8472 132.155 21.0278V28.6201H130.226L130.232 15.4635ZM148.791 28.6144L143.549 22.4005L141.702 24.2195V28.6201H139.77V10.1704H141.702V21.9006L148.319 15.4692H150.68L144.89 21.1182L151.109 28.6285L148.791 28.6144Z" fill="white"/>
<defs>
<linearGradient id="paint0_linear_6682_1746" x1="47.0625" y1="-45.8274" x2="-1.96344" y2="64.0968" gradientUnits="userSpaceOnUse">
<stop stop-color="#63F4FD"/>
<stop offset="0.68" stop-color="#8274FE"/>
<stop offset="0.88" stop-color="#7C2BFF"/>
</linearGradient>
</defs>
</svg>
