<svg width="447" height="111" viewBox="0 0 447 111" fill="none" xmlns="http://www.w3.org/2000/svg">
<path d="M55.0611 7.32186L74.2109 13.1674C91.7989 18.5202 101.629 36.825 96.1667 54.086L82.0445 106.612L29.3137 88.4659C11.6923 83.1131 1.88773 64.8083 7.3579 47.5974L13.3124 28.825C18.7743 11.5974 37.4647 1.96904 55.0611 7.32186Z" fill="url(#paint0_linear_6682_1734)"/>
<path fill-rule="evenodd" clip-rule="evenodd" d="M43.1833 40.9337C42.9819 41.0457 42.8049 41.1968 42.6626 41.378C42.5203 41.5593 42.4156 41.7672 42.3546 41.9894C42.2937 42.2117 42.2777 42.4439 42.3076 42.6724C42.3376 42.9009 42.4128 43.1211 42.5289 43.3202L49.458 55.1372C49.4917 55.1933 49.5458 55.2341 49.6089 55.2514C49.672 55.2686 49.7393 55.2608 49.7968 55.2296C49.8344 55.2087 49.8767 55.1976 49.9198 55.1975C49.9629 55.1974 50.0053 55.2083 50.043 55.2291C50.0807 55.2499 50.1125 55.2799 50.1354 55.3163C50.1584 55.3528 50.1716 55.3945 50.174 55.4375C50.174 55.4705 50.1806 55.5032 50.1935 55.5336C50.2063 55.564 50.2252 55.5915 50.2489 55.6144C50.2726 55.6374 50.3007 55.6554 50.3314 55.6673C50.3622 55.6792 50.3951 55.6849 50.4281 55.6838L59.205 55.576C59.4438 55.5914 59.6831 55.5575 59.9083 55.4766C60.1335 55.3956 60.3396 55.2693 60.5139 55.1055C60.6883 54.9416 60.8271 54.7437 60.9219 54.524C61.0166 54.3043 61.0652 54.0675 61.0647 53.8282C61.0641 53.589 61.0145 53.3524 60.9188 53.1331C60.8231 52.9138 60.6834 52.7166 60.5083 52.5535C60.3332 52.3904 60.1265 52.265 59.901 52.185C59.6755 52.1051 59.436 52.0723 59.1973 52.0887H56.0176C54.7642 52.1186 53.5252 51.8169 52.426 51.2139C51.3268 50.611 50.4065 49.7282 49.7583 48.6552L45.5854 41.5726C45.3424 41.1795 44.9582 40.8942 44.5115 40.7754C44.0648 40.6566 43.5896 40.7132 43.1833 40.9337Z" fill="white"/>
<path fill-rule="evenodd" clip-rule="evenodd" d="M59.6614 29.2698C59.7222 28.9403 59.857 28.6288 60.0554 28.3589C60.2539 28.0889 60.511 27.8674 60.8074 27.7111C61.1038 27.5548 61.4318 27.4676 61.7667 27.4563C62.1016 27.4449 62.4347 27.5096 62.7411 27.6454C67.4774 29.8289 71.4341 33.4066 74.0817 37.8997C75.7821 40.7932 76.886 43.9979 77.3283 47.3248C77.7705 50.6516 77.5422 54.0333 76.6568 57.2706C75.7713 60.5078 74.2467 63.535 72.1728 66.1738C70.0988 68.8125 67.5176 71.0094 64.5811 72.6349C58.6213 76.0146 51.5771 76.933 44.9499 75.1943C38.3227 73.4557 32.6368 69.1976 29.104 63.3275C27.4048 60.4327 26.3021 57.2271 25.8609 53.8995C25.4196 50.572 25.6488 47.1898 26.5349 43.9522C27.4209 40.7146 28.9459 37.687 31.0201 35.0477C33.0943 32.4085 35.6757 30.211 38.6123 28.5846C42.0777 26.6198 45.9459 25.4719 49.9222 25.2281C50.2574 25.2097 50.5923 25.269 50.9009 25.4014C51.2094 25.5338 51.4831 25.7356 51.7008 25.9912C51.9184 26.2469 52.074 26.5493 52.1555 26.875C52.2369 27.2006 52.242 27.5407 52.1703 27.8687C52.0441 28.4122 51.7445 28.8999 51.3167 29.2582C50.889 29.6165 50.3562 29.8259 49.799 29.8549C46.6903 30.1132 43.6748 31.043 40.9605 32.5801C38.5513 33.9118 36.4334 35.713 34.7323 37.8771C33.0311 40.0413 31.7811 42.5245 31.0562 45.18C30.3312 47.8355 30.1461 50.6093 30.5116 53.3376C30.8772 56.0659 31.7861 58.6932 33.1845 61.0642C36.0762 65.8694 40.7304 69.3553 46.1552 70.779C51.5799 72.2027 57.3463 71.4515 62.2252 68.6856C64.6351 67.3546 66.7537 65.5539 68.4556 63.39C70.1576 61.2262 71.4083 58.7431 72.134 56.0875C72.8597 53.432 73.0455 50.6579 72.6805 47.9293C72.3155 45.2007 71.4071 42.573 70.0089 40.2015C67.9136 36.6487 64.8181 33.7917 61.1089 31.9873C60.6034 31.7553 60.188 31.3637 59.9265 30.8728C59.6651 30.3819 59.5719 29.8187 59.6614 29.2698Z" fill="white"/>
<path d="M43.7366 42.8424C43.678 42.7421 43.64 42.6312 43.625 42.5161C43.6099 42.401 43.618 42.284 43.6489 42.1721C43.6797 42.0602 43.7327 41.9556 43.8046 41.8644C43.8765 41.7733 43.9659 41.6974 44.0676 41.6414L43.1745 40.1402C42.8726 40.3074 42.6149 40.4948 42.4016 40.7662C42.1883 41.0375 42.0315 41.3488 41.9404 41.6817C41.8493 42.0146 41.8257 42.3623 41.8711 42.7044C41.9164 43.0465 42.0067 43.4223 42.1814 43.72L43.7366 42.8424ZM50.7042 54.6594L43.7212 42.85L42.1814 43.72L49.1644 55.5293L50.7042 54.6594ZM59.6735 54.6594L50.8967 54.7749V56.507L59.6735 56.3992V54.6594ZM60.5358 53.7741C60.5358 54.0089 60.4426 54.2341 60.2765 54.4001C60.1105 54.5661 59.8853 54.6594 59.6505 54.6594V56.3992C60.3502 56.3952 61.0199 56.1144 61.5133 55.6182C62.0066 55.122 62.2835 54.4507 62.2835 53.751L60.5358 53.7741ZM59.6274 52.9042C59.7443 52.9011 59.8606 52.9212 59.9697 52.9634C60.0788 53.0055 60.1785 53.0689 60.263 53.1498C60.3474 53.2306 60.415 53.3275 60.4619 53.4346C60.5087 53.5418 60.5338 53.6572 60.5358 53.7741H62.2834C62.2754 53.4273 62.2224 53.0855 62.0822 52.7682C61.9421 52.4508 61.7408 52.1643 61.4898 51.9248C61.2389 51.6853 60.9432 51.4975 60.6196 51.3724C60.2961 51.2472 59.9511 51.1869 59.6043 51.1951L59.6274 52.9042ZM56.4477 52.9042H59.6274L59.6043 51.1951L56.44 51.2105L56.4477 52.9042ZM45.2764 41.9647L49.4492 49.0473L50.989 48.1773L46.8162 41.0948L45.2764 41.9647ZM44.0522 41.6414C44.2578 41.5234 44.5015 41.4912 44.7307 41.5517C44.9598 41.6123 45.1559 41.7606 45.2764 41.9647L46.8162 41.0948C46.4539 40.4919 45.8702 40.0545 45.1897 39.8762C44.5093 39.6978 43.7861 39.7926 43.1745 40.1402L44.0522 41.6414ZM49.7572 55.4061C49.7602 55.5544 49.7925 55.7006 49.8523 55.8364C49.912 55.9721 49.9981 56.0947 50.1054 56.197C50.2128 56.2993 50.3393 56.3794 50.4778 56.4326C50.6162 56.4858 50.7638 56.5111 50.9121 56.507V54.7749C50.994 54.7728 51.0755 54.7869 51.1519 54.8164C51.2284 54.8459 51.2982 54.8901 51.3576 54.9466C51.4169 55.003 51.4646 55.0707 51.4978 55.1456C51.531 55.2205 51.5491 55.3012 51.5511 55.383L49.7572 55.4061ZM56.44 51.2105C55.3449 51.2288 54.2644 50.958 53.3074 50.4255C52.3504 49.8929 51.5507 49.1175 50.989 48.1773L49.4492 49.0473C50.1711 50.2555 51.199 51.2519 52.4291 51.9358C53.6592 52.6198 55.0481 52.9671 56.4554 52.9427L56.44 51.2105ZM50.7042 55.9373C50.609 55.9898 50.502 56.0172 50.3933 56.0168C50.2846 56.0164 50.1778 55.9883 50.083 55.9351C49.9881 55.8819 49.9085 55.8054 49.8515 55.7129C49.7945 55.6203 49.762 55.5147 49.7572 55.4061H51.528C51.5227 55.2098 51.4663 55.0181 51.3644 54.8501C51.2626 54.6821 51.1187 54.5435 50.947 54.448C50.7753 54.3524 50.5817 54.3032 50.3853 54.3052C50.1888 54.3072 49.9962 54.3603 49.8265 54.4592L50.7042 55.9373ZM49.1644 55.5293C49.3182 55.7835 49.5647 55.968 49.8519 56.0441C50.1391 56.1202 50.4446 56.082 50.7042 55.9373L49.8188 54.3977C49.9645 54.3149 50.1366 54.292 50.2989 54.3336C50.4612 54.3753 50.6009 54.4783 50.6888 54.6209L49.1644 55.5293Z" fill="white"/>
<path d="M75.0955 38.4762C72.3259 33.782 68.1932 30.0417 63.2467 27.7523L62.2305 29.8463C66.7338 31.9376 70.4934 35.3505 73.0091 39.631L75.0955 38.4762ZM65.1561 74.7896C68.2253 73.0896 70.9233 70.7927 73.0912 68.0342C75.2592 65.2757 76.8532 62.1113 77.7794 58.7274C78.7056 55.3436 78.9453 51.8085 78.4844 48.3306C78.0235 44.8527 76.8712 41.5021 75.0955 38.4762L73.0476 39.631C74.6703 42.3932 75.7237 45.4523 76.1456 48.6279C76.5675 51.8035 76.3494 55.0315 75.5042 58.1215C74.659 61.2116 73.2037 64.1012 71.2242 66.6201C69.2447 69.1389 66.7809 71.2361 63.9782 72.788L65.1561 74.7896ZM28.0699 65.0588C35.5688 77.7766 52.1756 82.1108 65.1561 74.7896L63.9782 72.788C58.2887 76.0193 51.5614 76.8989 45.2323 75.239C38.9032 73.5792 33.4736 69.5115 30.1025 63.904L28.0699 65.0588ZM38.0094 28.7454C34.9386 30.4439 32.239 32.7399 30.0699 35.4983C27.9008 38.2566 26.306 41.4213 25.3796 44.8058C24.4533 48.1903 24.214 51.726 24.6761 55.2044C25.1381 58.6828 26.2921 62.0335 28.0699 65.0588L30.1179 63.904C28.4941 61.1421 27.4398 58.083 27.0174 54.9071C26.5949 51.7313 26.8127 48.503 27.658 45.4126C28.5033 42.3223 29.959 39.4325 31.9391 36.9137C33.9192 34.3949 36.3838 32.2981 39.1873 30.747L38.0094 28.7454ZM49.835 25.2273C45.6773 25.4879 41.6334 26.691 38.0094 28.7454L39.1873 30.747C42.4911 28.8755 46.1765 27.7778 49.9659 27.5368L49.835 25.2273ZM41.5432 34.7348C44.1041 33.2854 46.9487 32.4082 49.8812 32.1635L49.6888 29.854C46.4084 30.124 43.2266 31.1066 40.3653 32.7332L41.5432 34.7348ZM34.1906 61.6022C32.8763 59.3636 32.0234 56.8847 31.682 54.3114C31.3407 51.7381 31.5178 49.1225 32.203 46.6188C32.8882 44.115 34.0676 41.7736 35.6717 39.7327C37.2758 37.6917 39.2722 35.9924 41.5432 34.7348L40.3653 32.7332C37.8261 34.1372 35.5939 36.0355 33.8003 38.3161C32.0068 40.5968 30.6883 43.2135 29.9226 46.012C29.1569 48.8104 28.9596 51.7339 29.3422 54.6099C29.7248 57.4858 30.6797 60.256 32.1504 62.757L34.1906 61.6022ZM61.6223 68.8002C57.0139 71.4133 51.567 72.1232 46.4427 70.7786C41.3184 69.434 36.922 66.1413 34.1906 61.6022L32.1504 62.757C35.201 67.8298 40.113 71.5102 45.8388 73.0131C51.5647 74.516 57.6512 73.7225 62.8002 70.8018L61.6223 68.8002ZM69.0056 41.9328C70.3199 44.1714 71.1729 46.6503 71.5142 49.2236C71.8556 51.7969 71.6785 54.4125 70.9933 56.9163C70.3081 59.42 69.1287 61.7614 67.5246 63.8024C65.9205 65.8433 63.9241 67.5427 61.653 68.8002L62.831 70.8018C65.3694 69.3971 67.6008 67.4983 69.3938 65.2176C71.1867 62.9369 72.5048 60.3203 73.2704 57.5222C74.036 54.724 74.2336 51.8009 73.8516 48.9252C73.4695 46.0494 72.5155 43.2793 71.0459 40.778L69.0056 41.9328ZM60.5752 34.1805C64.0851 35.8816 67.0169 38.5777 69.0056 41.9328L71.0459 40.778C68.8272 37.0262 65.5522 34.0112 61.6299 32.1096L60.5752 34.1805ZM49.989 27.5368C50.1462 27.533 50.3021 27.5657 50.4445 27.6323C50.5869 27.6989 50.7118 27.7977 50.8096 27.9208C50.9074 28.0439 50.9752 28.188 51.0078 28.3418C51.0404 28.4956 51.037 28.6548 50.9976 28.807L53.3073 29.2458C53.4126 28.7422 53.4003 28.2211 53.2711 27.7231C53.1419 27.2251 52.8995 26.7637 52.5627 26.3747C52.2259 25.9858 51.8038 25.6799 51.3293 25.4808C50.8549 25.2818 50.3409 25.195 49.8274 25.2273L49.989 27.5368ZM61.6299 32.1096C61.3513 31.9904 61.1201 31.7821 60.9724 31.5175C60.8247 31.2528 60.769 30.9467 60.8139 30.6469L58.5041 30.2081C58.3619 31.007 58.4889 31.8304 58.8651 32.5493C59.2413 33.2682 59.8455 33.8419 60.5829 34.1805L61.6299 32.1096ZM50.9976 28.807C50.9217 29.1001 50.7535 29.361 50.5177 29.5509C50.282 29.7409 49.9913 29.8499 49.6888 29.8617L49.8812 32.1712C50.6925 32.1227 51.4661 31.8119 52.0854 31.2857C52.7047 30.7595 53.1362 30.0463 53.315 29.2535L50.9976 28.807ZM63.2467 27.7523C62.7781 27.5393 62.2672 27.4353 61.7525 27.4483C61.2378 27.4613 60.7328 27.5909 60.2755 27.8273C59.8181 28.0637 59.4204 28.4009 59.1123 28.8132C58.8041 29.2256 58.5936 29.7026 58.4964 30.2081L60.8062 30.6469C60.8319 30.4938 60.8922 30.3484 60.9824 30.222C61.0727 30.0955 61.1905 29.9913 61.327 29.9171C61.4635 29.8429 61.6151 29.8008 61.7703 29.7938C61.9255 29.7869 62.0802 29.8154 62.2228 29.8771L63.2467 27.7523Z" fill="white"/>
<path d="M131.701 83.7084C130.446 83.7778 129.213 83.3641 128.257 82.5533C127.299 81.4753 126.699 80.1298 126.539 78.7003L117.219 29.8159H122.937L131.469 76.3159H131.543L145.329 32.6624H147.752C148.167 32.64 148.583 32.7016 148.974 32.8434C149.365 32.9852 149.723 33.2043 150.026 33.4874C150.705 34.1767 151.191 35.0297 151.437 35.9626L163.645 76.2994H163.728L172.26 29.8159H177.978L168.675 78.7003C168.509 80.1297 167.906 81.4743 166.948 82.5533C165.993 83.3656 164.759 83.7795 163.504 83.7084H161.155L147.877 40.2858H147.802L134.05 83.7084H131.701ZM196.735 84.3271C192.353 84.3271 188.828 83.0676 186.161 80.5484C183.495 78.0292 182.164 74.6438 182.169 70.392V59.3776C182.169 54.9773 183.5 51.435 186.161 48.7509C188.823 46.0667 192.347 44.7054 196.735 44.6669H203.15C207.333 44.6669 210.7 45.9759 213.25 48.5941C215.801 51.2123 217.082 54.6775 217.093 58.9898V65.7635H187.805V70.3838C187.715 72.8037 188.596 75.16 190.253 76.9347C191.111 77.7629 192.13 78.4093 193.247 78.8348C194.364 79.2602 195.556 79.4559 196.751 79.4098H202.702C205.001 79.5135 207.257 78.7735 209.043 77.3307C209.843 76.6175 210.475 75.7375 210.894 74.7535C211.313 73.7694 211.508 72.7056 211.466 71.6378H216.952C217.014 73.3686 216.695 75.0919 216.019 76.6878C215.342 78.2837 214.324 79.7138 213.035 80.8784C210.429 83.1886 206.984 84.3436 202.702 84.3436L196.735 84.3271ZM211.45 60.9947V58.998C211.575 56.5351 210.766 54.1151 209.184 52.2161C208.438 51.3611 207.509 50.6836 206.465 50.2337C205.42 49.7839 204.287 49.5732 203.15 49.6172H196.735C195.524 49.575 194.318 49.7927 193.2 50.2554C192.081 50.7181 191.076 51.415 190.253 52.2986C188.57 54.2673 187.701 56.797 187.821 59.3776V61.0277L211.45 60.9947ZM242.365 84.3271C240.436 84.269 238.552 83.739 236.879 82.7843C235.085 81.8314 233.552 80.4579 232.414 78.7828V83.7331H226.936V29.8159H232.58V49.8317C233.722 48.2497 235.223 46.9578 236.962 46.0612C238.705 45.1578 240.64 44.6825 242.605 44.6751H248.166C250.639 44.6274 253.077 45.2675 255.204 46.5232C257.294 47.7003 258.984 49.4696 260.059 51.6056C261.295 53.899 261.916 56.4708 261.86 59.0723V68.9729C261.919 71.7461 261.301 74.4923 260.059 76.9759C258.982 79.2129 257.267 81.0863 255.129 82.3635C252.936 83.6796 250.412 84.3491 247.85 84.2941L242.365 84.3271ZM247.684 79.3768C248.855 79.4068 250.017 79.1651 251.077 78.6711C252.137 78.177 253.067 77.444 253.793 76.5304C255.477 74.3831 256.336 71.7095 256.216 68.9894V59.0888C256.332 56.5905 255.493 54.1411 253.867 52.2326C253.151 51.3856 252.251 50.7105 251.235 50.2576C250.219 49.8048 249.113 49.5858 248 49.6172H242.755C241.452 49.5996 240.16 49.8509 238.96 50.355C237.76 50.8591 236.678 51.6052 235.783 52.5461C233.798 54.6254 232.657 57.3615 232.58 60.2274V69.6165C232.667 71.3729 233.207 73.0775 234.148 74.5668C235.047 76.0184 236.282 77.2349 237.75 78.1145C239.141 78.9635 240.741 79.4146 242.373 79.4181L247.684 79.3768Z" fill="#424253"/>
<path d="M286.609 83.6007C284.592 83.6667 283.936 83.2129 283.09 82.4456C282.116 81.3756 281.499 80.0328 281.322 78.6009L271.587 29.7083H277.396L286.335 76.2165H286.41L298.734 32.6454H303.005C303.436 32.6454 303.935 32.6454 304.234 32.7594C304.634 32.902 304.998 33.1307 305.299 33.4292C305.993 34.1121 306.491 34.9664 306.743 35.9044L319.192 76.2082H319.275L328.022 29.7083H333.832L324.387 78.6009C324.21 80.0328 323.593 81.3756 322.62 82.4456C321.637 83.2611 320.257 83.6007 319.101 83.6007H316.204L303.124 40.2194H303.05L289.016 83.6007H286.609ZM353.103 84.2607C348.621 84.2607 345.025 82.9269 342.314 80.2592C339.603 77.5915 338.242 74.0796 338.231 69.7233V59.1874C338.231 54.8256 339.592 51.3136 342.314 48.6515C345.094 45.9783 347.36 44.65 353.277 44.65H359.842C364.374 44.65 368.003 45.9838 370.731 48.6515C373.459 51.3191 374.842 54.8311 374.881 59.1874V69.7233C374.881 74.0796 373.497 77.5915 370.731 80.2592C367.964 82.9269 364.277 84.2635 359.668 84.269L353.103 84.2607ZM357.303 78.0728C361.452 78.0728 363.112 77.6603 364.772 75.1851C366.482 73.3865 368.092 73.106 368.092 70.2348L367.677 58.2716C366.017 55.7964 365.486 54.8641 364.241 53.214C362.539 51.0771 359.842 50.8461 357.303 50.8461H352.323C349.551 50.8461 346.978 51.1101 345.268 52.9087C343.559 54.7073 343.194 56.3162 343.194 59.1874V69.7233C343.194 72.644 343.617 74.4673 345.268 76.2165C346.92 77.9656 349.551 78.0728 352.323 78.0728H357.303ZM385.462 45.1691H388.84V51.2669C389.911 49.4683 393.737 47.9667 395.87 46.8116C397.372 45.442 394.782 44.98 402.766 45.0295L405.854 45.079V50.4418H402.534C398.384 50.4418 394.674 50.4418 392.16 52.917C391.045 54.0619 390.175 55.4203 389.605 56.9095C389.034 58.3987 388.774 59.9878 388.84 61.58V83.5924H387.137H385.462V45.1691ZM440.894 83.6007L423.714 64.0469L417.074 69.7233V83.6172H413.829V29.7091L417.074 29.7248V64.0469L439.483 45.1862H443.018L426.187 62.3968L444.371 83.6007H440.894Z" fill="#424253"/>
<path d="M283.727 83.6007C282.434 83.6007 281.239 83.2564 280.283 82.4456C279.324 81.3688 278.723 80.0227 278.565 78.5926L269.245 29.7083H274.955L283.495 76.2082H283.57L297.363 32.6454H299.853C303.264 32.6454 301.513 32.8435 302.077 33.4045C302.759 34.0916 303.245 34.9455 303.488 35.8796L314.377 76.6785L316.867 76.2165L325.531 29.7083H329.98L320.684 78.5926C320.52 80.0225 319.917 81.3675 318.958 82.4456C318.157 83.3463 318.386 83.6007 315.514 83.6007H313.165L299.886 40.1782H299.803L286.076 83.6007H283.727ZM348.761 84.2195C344.368 84.2195 340.844 82.8829 338.188 80.2097C335.532 77.5365 334.201 74.0218 334.196 69.6655V59.1214C334.196 54.7541 335.526 51.2366 338.188 48.569C340.902 45.904 344.172 44.65 348.786 44.6087H355.334C361.733 44.6087 363.318 45.904 365.982 48.569C368.646 51.2339 370.057 54.7568 370.057 59.1214V69.6655C370.057 74.0328 368.699 77.5475 365.982 80.2097C363.268 82.8829 359.666 84.335 355.193 84.335L348.761 84.2195ZM355.177 79.2692C357.998 79.2692 361.816 78.4441 363.476 76.695C365.136 74.9459 365.368 72.5367 365.368 69.6655V59.1214C365.177 56.2832 365.127 54.4433 363.559 52.521C362.903 51.9352 362.123 50.3923 355.625 50.4831L349.052 50.4418C346.338 50.4418 344.006 50.4418 342.337 52.2322C340.618 54.1239 339.723 56.616 339.848 59.1626V69.6655C339.716 72.2253 340.587 74.7363 342.279 76.6702C343.105 77.5507 344.113 78.2432 345.233 78.7004C346.353 79.1575 347.56 79.3684 348.769 79.3187L355.177 79.2692ZM380.415 45.1697H385.892V51.0936C387.018 49.2258 388.645 47.706 390.59 46.7043C392.639 45.6306 394.913 45.0512 397.229 45.013H400.674V50.021H397.229C395.727 49.9615 394.229 50.2107 392.828 50.753C391.427 51.2953 390.154 52.119 389.088 53.1727C387.052 55.2244 386.033 57.9745 386.033 61.4233V83.6007H380.398L380.415 45.1697ZM434.626 83.5842L419.314 65.433L413.919 70.7464V83.6007H408.276V29.7083H413.919V63.9727L433.248 45.1862H440.145L423.231 61.6873L441.398 83.6254L434.626 83.5842Z" fill="#424253"/>
<defs>
<linearGradient id="paint0_linear_6682_1734" x1="137.473" y1="-133.864" x2="-5.73464" y2="187.23" gradientUnits="userSpaceOnUse">
<stop stop-color="#63F4FD"/>
<stop offset="0.68" stop-color="#8274FE"/>
<stop offset="0.88" stop-color="#7C2BFF"/>
</linearGradient>
</defs>
</svg>
