<svg width="186" height="186" viewBox="0 0 186 186" fill="none" xmlns="http://www.w3.org/2000/svg">
<g clip-path="url(#clip0_6662_539)">
<path d="M98.8977 3.44861L134.126 14.2029C166.481 24.0508 184.563 57.7271 174.516 89.483L148.536 186.118L51.5327 152.734C19.1162 142.886 1.07976 109.209 11.1427 77.5457L22.0967 43.0091C32.1443 11.3146 66.5273 -6.39925 98.8977 3.44861Z" fill="url(#paint0_linear_6662_539)"/>
<path fill-rule="evenodd" clip-rule="evenodd" d="M77.0471 65.2844C76.6765 65.4905 76.3508 65.7684 76.0891 66.1019C75.8273 66.4354 75.6347 66.8178 75.5226 67.2267C75.4105 67.6356 75.3811 68.0628 75.4362 68.4832C75.4912 68.9036 75.6296 69.3087 75.8432 69.675L88.59 91.4154C88.6521 91.5185 88.7515 91.5937 88.8675 91.6254C88.9836 91.657 89.1074 91.6427 89.2132 91.5854C89.2824 91.5469 89.3603 91.5265 89.4395 91.5264C89.5188 91.5262 89.5967 91.5462 89.6661 91.5844C89.7355 91.6226 89.794 91.6779 89.8362 91.7449C89.8784 91.812 89.9028 91.8887 89.9072 91.9678C89.9072 92.0285 89.9194 92.0886 89.943 92.1446C89.9667 92.2005 90.0013 92.2511 90.0449 92.2934C90.0885 92.3357 90.1402 92.3687 90.1968 92.3907C90.2534 92.4126 90.3139 92.4229 90.3746 92.421L106.521 92.2227C106.96 92.2509 107.4 92.1887 107.814 92.0397C108.229 91.8908 108.608 91.6584 108.929 91.357C109.249 91.0555 109.505 90.6914 109.679 90.2872C109.853 89.883 109.943 89.4474 109.942 89.0072C109.941 88.567 109.849 88.1318 109.673 87.7284C109.497 87.3249 109.24 86.962 108.918 86.6619C108.596 86.3619 108.216 86.1312 107.801 85.9841C107.386 85.837 106.946 85.7767 106.506 85.8068H100.657C98.3513 85.8619 96.072 85.3067 94.0499 84.1975C92.0279 83.0882 90.3349 81.4642 89.1424 79.49L81.466 66.4599C81.019 65.7366 80.3121 65.2118 79.4903 64.9932C78.6686 64.7746 77.7944 64.8788 77.0471 65.2844V65.2844Z" fill="white"/>
<path fill-rule="evenodd" clip-rule="evenodd" d="M107.356 43.8274C107.468 43.2212 107.715 42.6482 108.08 42.1516C108.446 41.6549 108.919 41.2474 109.464 40.9598C110.009 40.6722 110.612 40.5119 111.229 40.491C111.845 40.4701 112.457 40.589 113.021 40.839C121.734 44.8561 129.013 51.4381 133.883 59.7043C137.011 65.0277 139.042 70.9235 139.856 77.0441C140.669 83.1647 140.249 89.3862 138.62 95.342C136.992 101.298 134.187 106.867 130.372 111.722C126.556 116.576 121.808 120.618 116.406 123.609C105.442 129.826 92.4837 131.516 80.2923 128.317C68.1009 125.119 57.641 117.285 51.1421 106.485C48.0162 101.159 45.9877 95.2619 45.176 89.1401C44.3643 83.0182 44.7859 76.7958 46.4158 70.8394C48.0458 64.883 50.8513 59.313 54.667 54.4574C58.4827 49.6019 63.2315 45.559 68.6336 42.5669C75.0086 38.9522 82.1245 36.8402 89.4393 36.3918C90.056 36.3579 90.6721 36.467 91.2397 36.7105C91.8072 36.954 92.3108 37.3254 92.7112 37.7957C93.1115 38.266 93.3978 38.8224 93.5476 39.4216C93.6975 40.0207 93.7068 40.6464 93.5749 41.2497C93.3427 42.2496 92.7916 43.1469 92.0047 43.8061C91.2178 44.4652 90.2378 44.8505 89.2127 44.9038C83.494 45.379 77.9466 47.0897 72.9534 49.9176C68.5213 52.3676 64.6253 55.6813 61.4959 59.6628C58.3664 63.6443 56.0669 68.2128 54.7333 73.0983C53.3997 77.9837 53.0591 83.0869 53.7316 88.1063C54.4041 93.1256 56.076 97.9592 58.6486 102.321C63.9681 111.162 72.53 117.575 82.5094 120.194C92.4889 122.813 103.097 121.431 112.072 116.343C116.505 113.894 120.403 110.581 123.533 106.6C126.664 102.619 128.965 98.051 130.3 93.1654C131.635 88.2799 131.977 83.1763 131.306 78.1564C130.634 73.1364 128.963 68.3021 126.391 63.9391C122.536 57.4028 116.842 52.1467 110.018 48.827C109.088 48.4001 108.324 47.6797 107.843 46.7766C107.362 45.8734 107.191 44.8374 107.356 43.8274V43.8274Z" fill="white"/>
<path d="M78.0678 68.7973C77.96 68.6129 77.8902 68.4088 77.8625 68.1971C77.8348 67.9853 77.8497 67.7701 77.9065 67.5642C77.9632 67.3583 78.0606 67.1658 78.1929 66.9981C78.3252 66.8305 78.4897 66.691 78.6768 66.5879L77.0339 63.826C76.4784 64.1337 76.0043 64.4785 75.612 64.9777C75.2196 65.4769 74.9312 66.0496 74.7636 66.662C74.5959 67.2744 74.5526 67.9141 74.636 68.5436C74.7194 69.173 74.8855 69.8643 75.2068 70.4119L78.0678 68.7973ZM90.8854 90.5378L78.0395 68.8115L75.2068 70.4119L88.0528 92.1382L90.8854 90.5378ZM107.386 90.5378L91.2395 90.7502V93.9369L107.386 93.7386V90.5378ZM108.972 88.909C108.972 89.341 108.8 89.7553 108.495 90.0607C108.189 90.3662 107.775 90.5378 107.343 90.5378V93.7386C108.63 93.7311 109.862 93.2145 110.77 92.3016C111.677 91.3888 112.187 90.1538 112.187 88.8665L108.972 88.909ZM107.301 87.3086C107.516 87.3029 107.73 87.3399 107.93 87.4175C108.131 87.495 108.314 87.6116 108.47 87.7604C108.625 87.9092 108.75 88.0873 108.836 88.2845C108.922 88.4816 108.968 88.6939 108.972 88.909H112.187C112.172 88.271 112.074 87.6421 111.817 87.0583C111.559 86.4746 111.188 85.9473 110.727 85.5067C110.265 85.0661 109.721 84.7207 109.126 84.4904C108.531 84.2601 107.896 84.1493 107.258 84.1643L107.301 87.3086ZM101.451 87.3086H107.301L107.258 84.1643L101.437 84.1927L101.451 87.3086ZM80.9004 67.1827L88.5768 80.2128L91.4095 78.6124L83.733 65.5823L80.9004 67.1827ZM78.6485 66.5879C79.0266 66.3708 79.475 66.3116 79.8966 66.4229C80.3181 66.5343 80.6788 66.8072 80.9004 67.1827L83.733 65.5823C83.0666 64.4731 81.9928 63.6684 80.741 63.3403C79.4893 63.0121 78.1588 63.1865 77.0339 63.826L78.6485 66.5879ZM89.1434 91.9116C89.1489 92.1844 89.2083 92.4534 89.3183 92.7031C89.4282 92.9528 89.5865 93.1783 89.7839 93.3666C89.9814 93.5548 90.2142 93.7021 90.4689 93.8C90.7236 93.8979 90.9951 93.9444 91.2678 93.9369V90.7502C91.4185 90.7464 91.5684 90.7724 91.7091 90.8266C91.8497 90.8808 91.9783 90.9622 92.0875 91.0661C92.1966 91.17 92.2842 91.2944 92.3453 91.4322C92.4064 91.57 92.4397 91.7184 92.4434 91.8691L89.1434 91.9116ZM101.437 84.1927C99.4225 84.2263 97.4348 83.7281 95.6743 82.7483C93.9138 81.7686 92.4427 80.342 91.4095 78.6124L88.5768 80.2128C89.9047 82.4357 91.7956 84.2688 94.0586 85.5271C96.3215 86.7854 98.8765 87.4243 101.465 87.3794L101.437 84.1927ZM90.8854 92.8888C90.7103 92.9854 90.5135 93.0357 90.3135 93.035C90.1135 93.0343 89.917 92.9825 89.7426 92.8847C89.5682 92.7869 89.4216 92.6461 89.3168 92.4759C89.2119 92.3056 89.1522 92.1114 89.1434 91.9116H92.4009C92.3911 91.5503 92.2874 91.1977 92.1 90.8886C91.9126 90.5796 91.648 90.3246 91.3322 90.1488C91.0164 89.973 90.6602 89.8825 90.2988 89.8861C89.9373 89.8898 89.5831 89.9874 89.2708 90.1695L90.8854 92.8888ZM88.0528 92.1382C88.3358 92.6058 88.7893 92.9453 89.3176 93.0853C89.8459 93.2254 90.408 93.1549 90.8854 92.8888L89.2567 90.0562C89.5247 89.904 89.8413 89.8618 90.1398 89.9384C90.4384 90.015 90.6955 90.2045 90.8571 90.4669L88.0528 92.1382Z" fill="white"/>
<path d="M135.755 60.7653C130.66 52.1292 123.058 45.2479 113.958 41.036L112.089 44.8884C120.373 48.7358 127.289 55.0147 131.917 62.8898L135.755 60.7653ZM117.471 127.573C123.117 124.445 128.08 120.22 132.068 115.145C136.056 110.07 138.989 104.248 140.693 98.0225C142.397 91.797 142.838 85.2935 141.99 78.8949C141.142 72.4964 139.022 66.3322 135.755 60.7653L131.988 62.8898C134.973 67.9715 136.911 73.5995 137.687 79.4418C138.463 85.2842 138.062 91.2229 136.507 96.9078C134.952 102.593 132.275 107.909 128.634 112.543C124.992 117.177 120.46 121.035 115.304 123.89L117.471 127.573ZM49.2469 109.671C63.0418 133.068 93.5917 141.042 117.471 127.573L115.304 123.89C104.837 129.835 92.462 131.453 80.8189 128.4C69.1759 125.346 59.1876 117.862 52.986 107.546L49.2469 109.671ZM67.5315 42.8631C61.8825 45.9877 56.9164 50.212 52.9261 55.2866C48.9358 60.3613 46.002 66.1836 44.2978 72.4102C42.5937 78.6368 42.1536 85.1416 43.0036 91.541C43.8536 97.9404 45.9764 104.105 49.2469 109.671L53.0143 107.546C50.0271 102.465 48.0878 96.8369 47.3106 90.9941C46.5334 85.1513 46.9342 79.212 48.4892 73.5265C50.0442 67.8411 52.722 62.5246 56.3647 57.8907C60.0073 53.2567 64.5411 49.3991 69.6985 46.5455L67.5315 42.8631ZM89.2861 36.3905C81.6375 36.8701 74.1983 39.0834 67.5315 42.8631L69.6985 46.5455C75.7761 43.1023 82.5558 41.0829 89.5269 40.6394L89.2861 36.3905ZM74.0324 53.882C78.7435 51.2154 83.9765 49.6016 89.3711 49.1515L89.017 44.9026C82.9825 45.3993 77.1292 47.2071 71.8654 50.1996L74.0324 53.882ZM60.5066 103.311C58.0888 99.193 56.5197 94.6323 55.8917 89.8981C55.2638 85.1639 55.5896 80.3519 56.8501 75.7455C58.1106 71.1392 60.2802 66.8317 63.2311 63.0768C66.182 59.3219 69.8546 56.1956 74.0324 53.882L71.8654 50.1996C67.1944 52.7825 63.088 56.275 59.7886 60.4708C56.4892 64.6666 54.0637 69.4808 52.6551 74.6292C51.2465 79.7777 50.8835 85.1561 51.5874 90.4472C52.2912 95.7383 54.0478 100.835 56.7534 105.436L60.5066 103.311ZM110.97 116.554C102.492 121.361 92.4722 122.667 83.0456 120.194C73.6189 117.72 65.5312 111.662 60.5066 103.311L56.7534 105.436C62.3653 114.769 71.4014 121.54 81.9347 124.305C92.468 127.07 103.665 125.61 113.137 120.236L110.97 116.554ZM124.552 67.1245C126.97 71.243 128.539 75.8036 129.167 80.5378C129.795 85.2721 129.469 90.0841 128.209 94.6904C126.948 99.2967 124.779 103.604 121.828 107.359C118.877 111.114 115.204 114.24 111.027 116.554L113.194 120.236C117.863 117.652 121.968 114.159 125.266 109.963C128.565 105.767 130.99 100.953 132.398 95.8051C133.806 90.6572 134.17 85.2794 133.467 79.9887C132.764 74.6981 131.009 69.6017 128.306 65.0001L124.552 67.1245ZM109.044 52.8622C115.501 55.9919 120.894 60.9519 124.552 67.1245L128.306 65.0001C124.224 58.0976 118.2 52.5508 110.984 49.0524L109.044 52.8622ZM89.5694 40.6394C89.8585 40.6324 90.1453 40.6926 90.4072 40.8152C90.6692 40.9378 90.8991 41.1195 91.0789 41.346C91.2587 41.5725 91.3836 41.8376 91.4436 42.1205C91.5036 42.4034 91.4972 42.6964 91.4248 42.9764L95.6737 43.7837C95.8675 42.8572 95.8447 41.8985 95.6071 40.9823C95.3695 40.066 94.9235 39.2171 94.3039 38.5015C93.6843 37.786 92.9079 37.2232 92.0351 36.857C91.1622 36.4908 90.2166 36.3312 89.272 36.3905L89.5694 40.6394ZM110.984 49.0524C110.471 48.833 110.046 48.4498 109.774 47.9629C109.503 47.476 109.4 46.9128 109.483 46.3614L105.234 45.5541C104.972 47.0237 105.206 48.5386 105.898 49.8612C106.59 51.1838 107.701 52.2393 109.058 52.8622L110.984 49.0524ZM91.4248 42.9764C91.2852 43.5156 90.9756 43.9955 90.542 44.3449C90.1083 44.6944 89.5736 44.8949 89.017 44.9167L89.3711 49.1657C90.8635 49.0764 92.2865 48.5047 93.4258 47.5365C94.5651 46.5684 95.359 45.2563 95.6879 43.7978L91.4248 42.9764ZM113.958 41.036C113.096 40.644 112.156 40.4528 111.21 40.4767C110.263 40.5006 109.334 40.739 108.492 41.1739C107.651 41.6089 106.919 42.2291 106.353 42.9878C105.786 43.7465 105.398 44.624 105.22 45.5541L109.469 46.3614C109.516 46.0795 109.627 45.8122 109.793 45.5795C109.959 45.3469 110.176 45.1551 110.427 45.0186C110.678 44.8822 110.957 44.8046 111.242 44.7919C111.528 44.7791 111.812 44.8315 112.075 44.945L113.958 41.036Z" fill="white"/>
</g>
<defs>
<linearGradient id="paint0_linear_6662_539" x1="250.503" y1="-256.298" x2="-12.9777" y2="334.42" gradientUnits="userSpaceOnUse">
<stop stop-color="#63F4FD"/>
<stop offset="0.68" stop-color="#8274FE"/>
<stop offset="0.88" stop-color="#7C2BFF"/>
</linearGradient>
<clipPath id="clip0_6662_539">
<rect width="186" height="186" fill="white"/>
</clipPath>
</defs>
</svg>
