<svg width="16" height="16" viewBox="0 0 16 16" fill="none" xmlns="http://www.w3.org/2000/svg">
<path d="M14.0001 5.06797V13.6013C14.0001 13.8222 13.821 14.0013 13.6001 14.0013H5.06675C4.84583 14.0013 4.66675 13.8222 4.66675 13.6013V5.06797C4.66675 4.84706 4.84583 4.66797 5.06675 4.66797H13.6001C13.821 4.66797 14.0001 4.84706 14.0001 5.06797Z" stroke="#9090A7" stroke-width="0.8" stroke-linecap="round" stroke-linejoin="round"/>
<path d="M12.0001 2.66797H3.06675C2.84583 2.66797 2.66675 2.84706 2.66675 3.06797V12.0013" stroke="#9090A7" stroke-width="0.8" stroke-linecap="round" stroke-linejoin="round"/>
<path d="M4.66675 11.2L8.29635 10L14.0001 12" stroke="#9090A7" stroke-width="0.8" stroke-linecap="round" stroke-linejoin="round"/>
<path d="M11 8.66797C10.4477 8.66797 10 8.22024 10 7.66797C10 7.1157 10.4477 6.66797 11 6.66797C11.5523 6.66797 12 7.1157 12 7.66797C12 8.22024 11.5523 8.66797 11 8.66797Z" stroke="#9090A7" stroke-width="0.8" stroke-linecap="round" stroke-linejoin="round"/>
</svg>
